<?xml version="1.0" encoding="utf-8"?>
<svg version="1.1" xmlns:xlink="http://www.w3.org/1999/xlink" width="16px" height="16px" xmlns="http://www.w3.org/2000/svg">
  <g transform="matrix(1 0 0 1 -968 -41 )">
    <path d="M 9.8125 9.8125  C 10.655448717948719 8.969551282051281  11.076923076923077 7.955128205128204  11.076923076923077 6.76923076923077  C 11.076923076923077 5.583333333333332  10.655448717948719 4.5689102564102555  9.8125 3.7259615384615383  C 8.969551282051283 2.8830128205128194  7.955128205128205 2.4615384615384617  6.769230769230769 2.4615384615384617  C 5.583333333333334 2.4615384615384617  4.568910256410257 2.8830128205128194  3.7259615384615383 3.7259615384615383  C 2.8830128205128207 4.5689102564102555  2.4615384615384617 5.583333333333332  2.4615384615384617 6.76923076923077  C 2.4615384615384617 7.955128205128204  2.8830128205128207 8.969551282051281  3.7259615384615383 9.8125  C 4.568910256410257 10.655448717948715  5.583333333333334 11.076923076923077  6.769230769230769 11.076923076923077  C 7.955128205128205 11.076923076923077  8.969551282051283 10.655448717948715  9.8125 9.8125  Z M 15.64423076923077 13.903846153846153  C 15.881410256410257 14.141025641025642  16 14.42948717948718  16 14.76923076923077  C 16 15.102564102564104  15.87820512820513 15.391025641025642  15.634615384615385 15.634615384615385  C 15.391025641025642 15.878205128205128  15.102564102564104 16  14.76923076923077 16  C 14.423076923076923 16  14.134615384615385 15.878205128205128  13.903846153846153 15.634615384615385  L 10.60576923076923 12.346153846153847  C 9.458333333333334 13.141025641025642  8.17948717948718 13.538461538461538  6.769230769230769 13.538461538461538  C 5.852564102564103 13.538461538461538  4.975961538461538 13.360576923076923  4.139423076923077 13.004807692307693  C 3.3028846153846154 12.649038461538462  2.581730769230769 12.16826923076923  1.9759615384615385 11.5625  C 1.3701923076923077 10.95673076923077  0.8894230769230771 10.235576923076923  0.5336538461538461 9.399038461538462  C 0.1778846153846154 8.5625  0 7.685897435897434  0 6.76923076923077  C 0 5.8525641025641  0.1778846153846154 4.975961538461538  0.5336538461538461 4.139423076923077  C 0.8894230769230771 3.302884615384615  1.3701923076923077 2.58173076923077  1.9759615384615385 1.9759615384615383  C 2.581730769230769 1.3701923076923084  3.3028846153846154 0.8894230769230766  4.139423076923077 0.5336538461538467  C 4.975961538461538 0.17788461538461497  5.852564102564103 0  6.769230769230769 0  C 7.685897435897436 0  8.5625 0.17788461538461497  9.399038461538462 0.5336538461538467  C 10.235576923076923 0.8894230769230766  10.95673076923077 1.3701923076923084  11.5625 1.9759615384615383  C 12.16826923076923 2.58173076923077  12.649038461538462 3.302884615384615  13.004807692307692 4.139423076923077  C 13.360576923076923 4.975961538461538  13.538461538461538 5.8525641025641  13.538461538461538 6.76923076923077  C 13.538461538461538 8.179487179487179  13.141025641025642 9.458333333333332  12.346153846153847 10.60576923076923  L 15.64423076923077 13.903846153846153  Z " fill-rule="nonzero" fill="#8c8c8c" stroke="none" transform="matrix(1 0 0 1 968 41 )" />
  </g>
</svg>