<?xml version="1.0" encoding="utf-8"?>
<svg version="1.1" xmlns:xlink="http://www.w3.org/1999/xlink" width="161px" height="30px" xmlns="http://www.w3.org/2000/svg">
  <defs>
    <mask fill="white" id="clip175">
      <path d="M 0 20  L 0 10  C 0 4.399999999999977  7.959550561797712 0  18.089887640449437 0  L 85.02247191011236 0  L 142.91011235955057 0  C 153.0404494382023 0  161 4.399999999999977  161 10  L 161 20  C 161 25.600000000000023  153.0404494382023 30  142.91011235955057 30  L 18.089887640449437 30  C 7.959550561797712 30  0 25.600000000000023  0 20  Z " fill-rule="evenodd" />
    </mask>
  </defs>
  <g transform="matrix(1 0 0 1 0 -89 )">
    <path d="M 0 20  L 0 10  C 0 4.399999999999977  7.959550561797712 0  18.089887640449437 0  L 85.02247191011236 0  L 142.91011235955057 0  C 153.0404494382023 0  161 4.399999999999977  161 10  L 161 20  C 161 25.600000000000023  153.0404494382023 30  142.91011235955057 30  L 18.089887640449437 30  C 7.959550561797712 30  0 25.600000000000023  0 20  Z " fill-rule="nonzero" fill="#ec808d" stroke="none" transform="matrix(1 0 0 1 0 89 )" />
    <path d="M 0 20  L 0 10  C 0 4.399999999999977  7.959550561797712 0  18.089887640449437 0  L 85.02247191011236 0  L 142.91011235955057 0  C 153.0404494382023 0  161 4.399999999999977  161 10  L 161 20  C 161 25.600000000000023  153.0404494382023 30  142.91011235955057 30  L 18.089887640449437 30  C 7.959550561797712 30  0 25.600000000000023  0 20  Z " stroke-width="2" stroke="#797979" fill="none" transform="matrix(1 0 0 1 0 89 )" mask="url(#clip175)" />
  </g>
</svg>