<?xml version="1.0" encoding="utf-8"?>
<svg version="1.1" xmlns:xlink="http://www.w3.org/1999/xlink" width="100px" height="40px" xmlns="http://www.w3.org/2000/svg">
  <defs>
    <mask fill="white" id="clip212">
      <path d="M 0 24.615384615384617  L 0 15.384615384615385  C 0 6.7692307692307345  4.583333333333309 0  10.416666666666668 0  L 71.875 0  L 89.58333333333334 0  C 95.4166666666667 0  100 6.7692307692307345  100 15.384615384615385  L 100 24.615384615384617  C 100 33.23076923076926  95.4166666666667 40  89.58333333333334 40  L 10.416666666666668 40  C 4.583333333333309 40  0 33.23076923076926  0 24.615384615384617  Z " fill-rule="evenodd" />
    </mask>
  </defs>
  <g transform="matrix(1 0 0 1 -209 -4322 )">
    <path d="M 0 24.615384615384617  L 0 15.384615384615385  C 0 6.7692307692307345  4.583333333333309 0  10.416666666666668 0  L 71.875 0  L 89.58333333333334 0  C 95.4166666666667 0  100 6.7692307692307345  100 15.384615384615385  L 100 24.615384615384617  C 100 33.23076923076926  95.4166666666667 40  89.58333333333334 40  L 10.416666666666668 40  C 4.583333333333309 40  0 33.23076923076926  0 24.615384615384617  Z " fill-rule="nonzero" fill="#f59a23" stroke="none" transform="matrix(1 0 0 1 209 4322 )" />
    <path d="M 0 24.615384615384617  L 0 15.384615384615385  C 0 6.7692307692307345  4.583333333333309 0  10.416666666666668 0  L 71.875 0  L 89.58333333333334 0  C 95.4166666666667 0  100 6.7692307692307345  100 15.384615384615385  L 100 24.615384615384617  C 100 33.23076923076926  95.4166666666667 40  89.58333333333334 40  L 10.416666666666668 40  C 4.583333333333309 40  0 33.23076923076926  0 24.615384615384617  Z " stroke-width="2" stroke="#797979" fill="none" transform="matrix(1 0 0 1 209 4322 )" mask="url(#clip212)" />
  </g>
</svg>