<?xml version="1.0" encoding="utf-8"?>
<svg version="1.1" xmlns:xlink="http://www.w3.org/1999/xlink" width="130px" height="89px" xmlns="http://www.w3.org/2000/svg">
  <g transform="matrix(1 0 0 1 -403 -5538 )">
    <path d="M 468 5538  C 504.4 5538  533 5557.58  533 5582.5  C 533 5607.42  504.4 5627  468 5627  C 431.6 5627  403 5607.42  403 5582.5  C 403 5557.58  431.6 5538  468 5538  Z " fill-rule="nonzero" fill="#ffffff" stroke="none" />
    <path d="M 468 5538.5  C 504.12 5538.5  532.5 5557.86  532.5 5582.5  C 532.5 5607.14  504.12 5626.5  468 5626.5  C 431.88 5626.5  403.5 5607.14  403.5 5582.5  C 403.5 5557.86  431.88 5538.5  468 5538.5  Z " stroke-width="1" stroke="#797979" fill="none" />
  </g>
</svg>