<?xml version="1.0" encoding="utf-8"?>
<svg version="1.1" xmlns:xlink="http://www.w3.org/1999/xlink" width="140px" height="30px" xmlns="http://www.w3.org/2000/svg">
  <defs>
    <mask fill="white" id="clip177">
      <path d="M 0 20  L 0 10  C 0 4.399999999999977  6.921348314606705 0  15.730337078651685 0  L 73.93258426966291 0  L 124.26966292134831 0  C 133.07865168539328 0  140 4.399999999999977  140 10  L 140 20  C 140 25.600000000000023  133.07865168539328 30  124.26966292134831 30  L 15.730337078651685 30  C 6.921348314606705 30  0 25.600000000000023  0 20  Z " fill-rule="evenodd" />
    </mask>
  </defs>
  <g transform="matrix(1 0 0 1 -299 -161 )">
    <path d="M 0 20  L 0 10  C 0 4.399999999999977  6.921348314606705 0  15.730337078651685 0  L 73.93258426966291 0  L 124.26966292134831 0  C 133.07865168539328 0  140 4.399999999999977  140 10  L 140 20  C 140 25.600000000000023  133.07865168539328 30  124.26966292134831 30  L 15.730337078651685 30  C 6.921348314606705 30  0 25.600000000000023  0 20  Z " fill-rule="nonzero" fill="#ec808d" stroke="none" transform="matrix(1 0 0 1 299 161 )" />
    <path d="M 0 20  L 0 10  C 0 4.399999999999977  6.921348314606705 0  15.730337078651685 0  L 73.93258426966291 0  L 124.26966292134831 0  C 133.07865168539328 0  140 4.399999999999977  140 10  L 140 20  C 140 25.600000000000023  133.07865168539328 30  124.26966292134831 30  L 15.730337078651685 30  C 6.921348314606705 30  0 25.600000000000023  0 20  Z " stroke-width="2" stroke="#797979" fill="none" transform="matrix(1 0 0 1 299 161 )" mask="url(#clip177)" />
  </g>
</svg>