<?xml version="1.0" encoding="utf-8"?>
<svg version="1.1" xmlns:xlink="http://www.w3.org/1999/xlink" width="161px" height="95px" xmlns="http://www.w3.org/2000/svg">
  <defs>
    <filter x="27px" y="807px" width="161px" height="95px" filterUnits="userSpaceOnUse" id="filter182">
      <feOffset dx="5" dy="5" in="SourceAlpha" result="shadowOffsetInner" />
      <feGaussianBlur stdDeviation="2.5" in="shadowOffsetInner" result="shadowGaussian" />
      <feComposite in2="shadowGaussian" operator="atop" in="SourceAlpha" result="shadowComposite" />
      <feColorMatrix type="matrix" values="0 0 0 0 0  0 0 0 0 0  0 0 0 0 0  0 0 0 0.34901960784313724 0  " in="shadowComposite" />
    </filter>
    <g id="widget183">
      <path d="M 102.5 807  C 144.78 807  178 825.7  178 849.5  C 178 873.3  144.78 892  102.5 892  C 60.22 892  27 873.3  27 849.5  C 27 825.7  60.22 807  102.5 807  Z " fill-rule="nonzero" fill="#00ffff" stroke="none" />
      <path d="M 102.5 807.5  C 144.5 807.5  177.5 825.98  177.5 849.5  C 177.5 873.02  144.5 891.5  102.5 891.5  C 60.49999999999999 891.5  27.5 873.02  27.5 849.5  C 27.5 825.98  60.49999999999999 807.5  102.5 807.5  Z " stroke-width="1" stroke="#797979" fill="none" />
    </g>
  </defs>
  <g transform="matrix(1 0 0 1 -27 -807 )">
    <use xlink:href="#widget183" filter="url(#filter182)" />
    <use xlink:href="#widget183" />
  </g>
</svg>